<svg height='100px' width='100px'  fill="#000000" xmlns:dc="http://purl.org/dc/elements/1.1/" xmlns:cc="http://creativecommons.org/ns#" xmlns:rdf="http://www.w3.org/1999/02/22-rdf-syntax-ns#" xmlns:svg="http://www.w3.org/2000/svg" xmlns="http://www.w3.org/2000/svg" version="1.1" viewBox="0 0 100 100" x="0px" y="0px"><path d="M 32.692255,11.03749 C 32.692255,7.70308 40.441198,5 50.000007,5 c 9.558806,0 17.307752,2.70308 17.307752,6.03749 l 0,10.15653 c 0,3.33441 -7.748946,6.03749 -17.307752,6.03749 -9.558809,0 -17.307752,-2.70308 -17.307752,-6.03749 z" style="" fill="#000000" fill-opacity="1" stroke="none"></path><path d="m 67.28273,75.69952 c 0,3.414 -7.588533,6.5038 -17.133518,6.5038 -9.544984,0 -17.282723,-3.0898 -17.431929,-6.5038 0,0 -0.02085,-30.41213 -0.02503,-45.6182 0,3.33441 7.748943,6.03749 17.307752,6.03749 9.558806,0 17.307752,-2.70308 17.307752,-6.03749 z" style="" fill="#000000" fill-opacity="1" stroke="none"></path><path d="m 32.71875,55.1875 c -1.951014,0.788313 -3.782367,1.711875 -5.4375,2.75 -2.958631,1.8556 -5.390486,4.0691 -7.15625,6.6875 -1.765763,2.6184 -2.875,5.72465 -2.875,9.03125 0,3.3067 1.109237,6.3816 2.875,9 1.765764,2.6185 4.197619,4.86305 7.15625,6.71875 5.917261,3.7113 13.906058,5.90625 22.71875,5.90625 8.812692,0 16.801489,-2.19495 22.71875,-5.90625 2.958631,-1.8557 5.390487,-4.10025 7.15625,-6.71875 1.765764,-2.6184 2.875,-5.6933 2.875,-9 0,-3.3066 -1.109236,-6.41285 -2.875,-9.03125 -1.765763,-2.6184 -4.197619,-4.8319 -7.15625,-6.6875 -1.655133,-1.038125 -3.485158,-1.961687 -5.4375,-2.75 l 0,4.3125 c 1.505503,0.650265 2.914464,1.357805 4.1875,2.15625 2.693168,1.6892 4.792457,3.6814 6.1875,5.75 1.395043,2.0687 2.0625,4.1474 2.0625,6.25 0,2.1026 -0.667457,4.15005 -2.0625,6.21875 -1.395043,2.0687 -3.494332,4.0608 -6.1875,5.75 C 66.082409,89.0033 58.436019,91.1875 50,91.1875 c -8.43602,0 -16.082409,-2.1842 -21.46875,-5.5625 -2.693168,-1.6892 -4.792457,-3.6813 -6.1875,-5.75 -1.395042,-2.0687 -2.0625,-4.11615 -2.0625,-6.21875 0,-2.1026 0.667458,-4.1813 2.0625,-6.25 1.395043,-2.0686 3.494332,-4.0608 6.1875,-5.75 1.273036,-0.798445 2.683002,-1.505985 4.1875,-2.15625 -9.53e-4,-1.498671 0.0011,-2.598069 0,-4.3125 z" style="text-indent:0;text-transform:none;direction:ltr;block-progression:tb;baseline-shift:baseline;color:#000000;enable-background:accumulate;" fill="#000000" fill-opacity="1" stroke="none" marker="none" visibility="visible" display="inline" overflow="visible"></path></svg>